<svg width="107" height="54" viewBox="0 0 107 54" fill="none" xmlns="http://www.w3.org/2000/svg">
<path d="M65.9728 29.5777C65.9728 29.5777 65.9728 26.6294 65.9728 25.1552L65.9728 26.6294L65.9728 29.5777ZM65.9728 29.5777L66.3853 37.6306C66.5957 40.0345 67.7523 42.2565 69.6009 43.8076C71.4494 45.3587 73.8385 46.112 76.2424 45.9017C78.6463 45.6913 80.8683 44.5347 82.4194 42.6861C83.9705 40.8376 84.7238 38.4485 84.5134 36.0446L84.5141 25.1554" stroke="#0D60C8" stroke-width="5" stroke-linecap="round" stroke-linejoin="round"/>
<path d="M75.1323 29.2012C75.1323 29.2012 75.1323 31.108 75.1322 33.9994L75.1323 30.4536L75.1323 29.2012ZM75.1323 29.2012L74.7197 21.1483C74.5094 18.7444 73.3527 16.5225 71.5042 14.9713C69.6556 13.4202 67.2666 12.6669 64.8627 12.8773C62.4587 13.0876 60.2368 14.2442 58.6857 16.0928C57.1345 17.9414 56.3813 20.3304 56.5916 22.7343L56.838 33.9994" stroke="#0D60C8" stroke-width="5" stroke-linecap="round" stroke-linejoin="round"/>
<path d="M3.168 35.82C2.592 35.676 2.124 35.364 1.764 34.884C1.404 34.38 1.224 33.816 1.224 33.192V32.796C1.224 32.316 1.416 31.944 1.8 31.68C2.208 31.416 2.64 31.356 3.096 31.5C4.68 32.028 6.24 32.292 7.776 32.292C9.336 32.292 10.476 31.812 11.196 30.852C11.94 29.868 12.312 28.224 12.312 25.92V11.772C12.312 11.22 12.516 10.74 12.924 10.332C13.332 9.924 13.812 9.72 14.364 9.72H15.516C16.068 9.72 16.536 9.924 16.92 10.332C17.328 10.74 17.532 11.22 17.532 11.772V26.892C17.532 30.252 16.788 32.676 15.3 34.164C13.812 35.628 11.436 36.36 8.172 36.36C6.372 36.36 4.704 36.18 3.168 35.82ZM33.5039 21.924C32.8079 20.916 31.7519 20.412 30.3359 20.412C28.9199 20.412 27.8519 20.916 27.1319 21.924C26.4359 22.908 26.0879 24.48 26.0879 26.64C26.0879 28.8 26.4359 30.384 27.1319 31.392C27.8519 32.376 28.9199 32.868 30.3359 32.868C31.7519 32.868 32.8079 32.376 33.5039 31.392C34.2239 30.384 34.5839 28.8 34.5839 26.64C34.5839 24.48 34.2239 22.908 33.5039 21.924ZM37.0319 33.84C35.4479 35.52 33.2159 36.36 30.3359 36.36C27.4559 36.36 25.2119 35.52 23.6039 33.84C22.0199 32.136 21.2279 29.736 21.2279 26.64C21.2279 23.544 22.0199 21.156 23.6039 19.476C25.2119 17.772 27.4559 16.92 30.3359 16.92C33.2159 16.92 35.4479 17.772 37.0319 19.476C38.6399 21.156 39.4439 23.544 39.4439 26.64C39.4439 29.736 38.6399 32.136 37.0319 33.84ZM46.2918 36C45.7398 36 45.2598 35.796 44.8518 35.388C44.4438 34.98 44.2398 34.5 44.2398 33.948V19.332C44.2398 18.78 44.4438 18.3 44.8518 17.892C45.2598 17.484 45.7398 17.28 46.2918 17.28H47.2278C47.7798 17.28 48.2598 17.484 48.6678 17.892C49.0758 18.3 49.2798 18.78 49.2798 19.332V33.948C49.2798 34.5 49.0758 34.98 48.6678 35.388C48.2598 35.796 47.7798 36 47.2278 36H46.2918ZM46.2918 13.32C45.7398 13.32 45.2598 13.116 44.8518 12.708C44.4438 12.3 44.2398 11.82 44.2398 11.268V11.052C44.2398 10.5 44.4438 10.02 44.8518 9.612C45.2598 9.204 45.7398 9 46.2918 9H47.2278C47.7798 9 48.2598 9.204 48.6678 9.612C49.0758 10.02 49.2798 10.5 49.2798 11.052V11.268C49.2798 11.82 49.0758 12.3 48.6678 12.708C48.2598 13.116 47.7798 13.32 47.2278 13.32H46.2918Z" fill="black"/>
<path d="M95.928 28.44C93.408 27.888 91.608 27.132 90.528 26.172C89.472 25.212 88.944 23.964 88.944 22.428C88.944 20.7 89.58 19.356 90.852 18.396C92.148 17.412 94.056 16.92 96.576 16.92C98.16 16.92 99.732 17.064 101.292 17.352C101.82 17.448 102.24 17.712 102.552 18.144C102.888 18.552 103.056 19.032 103.056 19.584C103.056 20.04 102.876 20.412 102.516 20.7C102.156 20.964 101.748 21.036 101.292 20.916C99.948 20.58 98.532 20.412 97.044 20.412C94.884 20.412 93.804 21.012 93.804 22.212C93.804 22.788 94.008 23.268 94.416 23.652C94.824 24.036 95.52 24.336 96.504 24.552C99.264 25.104 101.148 25.848 102.156 26.784C103.188 27.72 103.704 29.088 103.704 30.888C103.704 32.616 103.056 33.96 101.76 34.92C100.464 35.88 98.58 36.36 96.108 36.36C94.5 36.36 92.856 36.168 91.176 35.784C90.648 35.664 90.216 35.388 89.88 34.956C89.544 34.5 89.376 33.984 89.376 33.408C89.376 32.952 89.556 32.604 89.916 32.364C90.3 32.124 90.708 32.064 91.14 32.184C92.7 32.616 94.176 32.832 95.568 32.832C97.752 32.832 98.844 32.184 98.844 30.888C98.844 30.264 98.628 29.772 98.196 29.412C97.788 29.052 97.032 28.728 95.928 28.44Z" fill="black"/>
</svg>
